<?xml version="1.0" encoding="utf-8"?>
<!-- Generator: Adobe Illustrator 25.2.0, SVG Export Plug-In . SVG Version: 6.00 Build 0)  -->
<svg version="1.1" id="Layer_2" xmlns="http://www.w3.org/2000/svg" xmlns:xlink="http://www.w3.org/1999/xlink" x="0px" y="0px"
	 viewBox="0 0 945 228" style="enable-background:new 0 0 945 228;" xml:space="preserve">
<style type="text/css">
	.st0{fill:#E5C100;}
	.st1{fill:#922C40;}
	.st2{fill:#DC9750;}
</style>
<polygon class="st0" points="751.5,181 597,181 597,26.5 "/>
<polygon class="st0" points="190,180.5 35.5,180.5 35.5,26 "/>
<polygon class="st0" points="587.5,181 433,181 433,26.5 "/>
<rect x="264" y="26" class="st1" width="76" height="155"/>
<rect x="597" y="26" class="st1" width="76" height="155"/>
<rect x="800" y="26" class="st1" width="76" height="155"/>
<rect x="800" y="-13.5" transform="matrix(6.123234e-17 -1 1 6.123234e-17 774 902)" class="st2" width="76" height="155"/>
<path class="st2" d="M340,102c41.97,0,76-34.03,76-76H264C264,67.97,298.03,102,340,102z"/>
<path class="st2" d="M673,102c41.97,0,76-34.03,76-76H597C597,67.97,631.03,102,673,102z"/>
</svg>
